2.8Hzhigh3min_grf.mot
version=1
nRows=17
nColumns 19
inDegrees=yes
endheader
time	1_ground_force_vx	1_ground_force_vy	1_ground_force_vz	1_ground_force_px	1_ground_force_py	1_ground_force_pz	1_ground_torque_x	1_ground_torque_y	1_ground_torque_z	2_ground_force_vx	2_ground_force_vy	2_ground_force_vz	2_ground_force_px	2_ground_force_py	2_ground_force_pz	2_ground_torque_x	2_ground_torque_y	2_ground_torque_z
            2.502500	          -11.555837	          695.104601	          -39.592273	           -0.238215	            0.006364	           -0.438442	            0.043645	           -2.625321	            0.149535	          -21.606451	          604.161817	           42.194409	           -0.222598	            0.005794	           -0.729653	           -0.092217	            2.578588	            0.180087
            2.503000	          -10.143411	          705.391845	          -42.303096	           -0.238162	            0.006364	           -0.438531	            0.035061	           -2.438203	            0.146222	          -20.890775	          613.735018	           43.683028	           -0.222567	            0.005795	           -0.729800	           -0.067536	            1.984104	            0.141220
            2.503500	          -11.573657	          716.039601	          -45.142883	           -0.238155	            0.006364	           -0.438516	            0.038330	           -2.371394	            0.149505	          -21.625369	          622.749944	           45.358007	           -0.222637	            0.005795	           -0.729853	           -0.064297	            1.851585	            0.134860
            2.504000	          -15.342141	          727.408287	          -48.019635	           -0.238042	            0.006362	           -0.437919	            0.053290	           -2.526611	            0.166793	          -23.679779	          633.970156	           46.947572	           -0.222603	            0.005797	           -0.730351	           -0.078949	            2.113665	            0.156524
            2.504500	          -19.749271	          737.689959	          -49.707179	           -0.238269	            0.006362	           -0.437935	            0.076293	           -2.849762	            0.192023	          -26.707752	          642.243410	           47.729264	           -0.222565	            0.005797	           -0.730332	           -0.114918	            2.763434	            0.205369
            2.505000	          -22.914928	          747.605232	          -49.931950	           -0.238263	            0.006361	           -0.437771	            0.105225	           -3.432981	            0.229286	          -28.944775	          651.994050	           48.093521	           -0.222383	            0.005797	           -0.730307	           -0.143804	            3.239248	            0.238939
            2.505500	          -22.781604	          758.785404	          -50.755634	           -0.238337	            0.006361	           -0.437643	            0.111978	           -3.729657	            0.249479	          -30.201400	          662.670133	           48.179077	           -0.222604	            0.005797	           -0.730426	           -0.151915	            3.333266	            0.242343
            2.506000	          -21.274159	          770.148105	          -52.040510	           -0.238461	            0.006361	           -0.437665	            0.105001	           -3.801140	            0.256851	          -29.487321	          672.613791	           49.058945	           -0.222710	            0.005797	           -0.730664	           -0.129757	            2.959788	            0.215880
            2.506500	          -18.026601	          780.793741	          -54.158215	           -0.238660	            0.006361	           -0.437687	            0.076730	           -3.323456	            0.230525	          -28.258937	          682.925370	           50.596902	           -0.222753	            0.005798	           -0.730944	           -0.102045	            2.466100	            0.182710
            2.507000	          -16.477231	          790.541303	          -57.146834	           -0.238639	            0.006362	           -0.437905	            0.057908	           -2.778281	            0.200837	          -27.076489	          693.050569	           52.697359	           -0.222980	            0.005798	           -0.731068	           -0.086125	            2.204454	            0.167620
            2.507500	          -17.402374	          801.007606	          -59.667657	           -0.238707	            0.006361	           -0.437741	            0.057134	           -2.629802	            0.195896	          -27.767537	          702.986139	           54.422530	           -0.223046	            0.005798	           -0.731149	           -0.100960	            2.555976	            0.197874
            2.508000	          -20.297755	          810.931067	          -61.819053	           -0.238831	            0.006360	           -0.437593	            0.073382	           -2.931731	            0.223492	          -29.819120	          713.468450	           56.384892	           -0.223192	            0.005798	           -0.731405	           -0.129790	            3.105424	            0.245419
            2.508500	          -23.101162	          821.755117	          -63.783395	           -0.238753	            0.006358	           -0.437110	            0.102805	           -3.656970	            0.283849	          -32.103435	          723.401404	           57.266036	           -0.223003	            0.005799	           -0.731576	           -0.159072	            3.584445	            0.283753
            2.509000	          -24.023424	          830.774651	          -65.255728	           -0.238954	            0.006359	           -0.437263	            0.126097	           -4.360665	            0.342522	          -33.403259	          733.153753	           58.099175	           -0.223009	            0.005800	           -0.731743	           -0.167989	            3.687120	            0.292188
            2.509500	          -22.516968	          840.697511	          -67.051206	           -0.239150	            0.006359	           -0.437244	            0.121636	           -4.541431	            0.362209	          -32.775466	          741.070749	           59.206496	           -0.223175	            0.005799	           -0.731513	           -0.147075	            3.325442	            0.265680
            2.510000	          -18.948765	          850.262218	          -69.357754	           -0.239096	            0.006359	           -0.437314	            0.091866	           -4.122181	            0.336255	          -31.599288	          752.855619	           60.655873	           -0.223351	            0.005799	           -0.731757	           -0.121084	            2.884845	            0.232425
            2.510500	          -14.922621	          860.008218	          -71.848105	           -0.239177	            0.006359	           -0.437335	            0.057936	           -3.338918	            0.278945	          -30.135220	          762.798803	           62.427056	           -0.223502	            0.005799	           -0.731910	           -0.106532	            2.696607	            0.220689
